<svg width="23" height="5" viewBox="0 0 23 5" fill="none" xmlns="http://www.w3.org/2000/svg">
<path fill-rule="evenodd" clip-rule="evenodd" d="M2.74 0.157237C2.14592 0.157237 1.57608 0.393173 1.15608 0.813317C0.73592 1.23332 0.5 1.80316 0.5 2.39724C0.5 2.99132 0.735936 3.56116 1.15608 3.98116C1.57608 4.40132 2.14592 4.63724 2.74 4.63724C3.33408 4.63724 3.90392 4.4013 4.32392 3.98116C4.74408 3.56116 4.98 2.99132 4.98 2.39724C4.98 1.80316 4.74406 1.23332 4.32392 0.813317C3.90392 0.393157 3.33408 0.157237 2.74 0.157237ZM11.7 0.157237C11.1059 0.157237 10.5361 0.393173 10.1161 0.813317C9.69592 1.23332 9.46 1.80316 9.46 2.39724C9.46 2.99132 9.69593 3.56116 10.1161 3.98116C10.5361 4.40132 11.1059 4.63724 11.7 4.63724C12.2941 4.63724 12.8639 4.4013 13.2839 3.98116C13.7041 3.56116 13.94 2.99132 13.94 2.39724C13.94 1.80052 13.702 1.22848 13.2786 0.808037C12.8553 0.387557 12.2817 0.153357 11.685 0.157237H11.7ZM20.66 0.157237C20.0659 0.157237 19.4961 0.393173 19.0761 0.813317C18.6559 1.23332 18.42 1.80316 18.42 2.39724C18.42 2.99132 18.6559 3.56116 19.0761 3.98116C19.4961 4.40132 20.0659 4.63724 20.66 4.63724C21.2541 4.63724 21.8239 4.4013 22.2439 3.98116C22.6641 3.56116 22.9 2.99132 22.9 2.39724C22.9 1.79724 22.6595 1.2224 22.232 0.801317C21.8047 0.380237 21.2262 0.148197 20.6264 0.157237H20.66Z" fill="#332D2D"/>
</svg>
