<svg width="13" height="19" viewBox="0 0 13 19" fill="none" xmlns="http://www.w3.org/2000/svg">
<path d="M6.62292 0.656982C3.23932 0.656982 0.5 3.50702 0.5 7.00668C0.5 8.26819 0.868096 9.22729 1.47096 10.2028L6.43166 18.2319H6.4315C6.4731 18.2974 6.5454 18.3371 6.62291 18.3371C6.70042 18.3371 6.77271 18.2974 6.81431 18.2319L11.775 10.2028C12.3777 9.22729 12.7458 8.26824 12.7458 7.00668C12.7458 3.50698 10.0065 0.656982 6.62289 0.656982H6.62292ZM6.62292 1.11049C9.75201 1.11049 12.2923 3.74302 12.2923 7.00664C12.2923 8.18259 11.969 9.03567 11.3922 9.9688L6.62304 17.686L1.85389 9.9688C1.27715 9.03567 0.953792 8.18259 0.953792 7.00664C0.953792 3.74294 3.49408 1.11049 6.62316 1.11049H6.62292ZM6.62292 3.83175C4.99739 3.83175 3.67481 5.15433 3.67481 6.77986C3.67481 8.40539 4.99739 9.72798 6.62292 9.72798C8.24845 9.72798 9.57103 8.40539 9.57103 6.77986C9.57103 5.15433 8.24845 3.83175 6.62292 3.83175ZM6.62292 4.28526C8.00325 4.28526 9.11753 5.39937 9.11753 6.77986C9.11753 8.16019 8.00341 9.27447 6.62292 9.27447C5.24259 9.27447 4.12832 8.16035 4.12832 6.77986C4.12832 5.39953 5.24243 4.28526 6.62292 4.28526Z" fill="black"/>
</svg>
