<svg width="16" height="19" viewBox="0 0 16 19" fill="none" xmlns="http://www.w3.org/2000/svg">
<path d="M5.84153 18.6569H10.3509C13.2952 18.6569 15.6911 16.2604 15.6911 13.3145C15.6911 12.0699 15.0939 10.6196 14.0943 9.43479L10.8529 5.59039L12.8806 1.7717C12.9391 1.66236 12.9288 1.52933 12.8549 1.42974C12.781 1.33073 12.6576 1.2838 12.5347 1.30562L9.5769 1.88292L8.31169 0.73996C8.18957 0.629323 8.00316 0.629323 7.88033 0.73996L6.61581 1.88292L3.65715 1.30492C3.5356 1.28368 3.41162 1.33003 3.337 1.42905C3.2631 1.52863 3.25349 1.6618 3.31132 1.77101L5.34024 5.58969L2.09757 9.43409C1.09725 10.6196 0.5 12.0705 0.5 13.3145C0.500574 16.2604 2.89657 18.657 5.84175 18.657L5.84153 18.6569ZM4.19573 2.06486L6.65027 2.54444C6.75058 2.5631 6.85218 2.5354 6.92737 2.46724L8.09546 1.41108L9.26425 2.46797C9.33944 2.53614 9.44362 2.56383 9.54134 2.54518L11.9952 2.06559L10.352 5.16043C10.3468 5.15957 10.3424 5.15642 10.3365 5.15642H5.85546C5.84972 5.15642 5.84513 5.15957 5.83939 5.16029L4.19573 2.06486ZM2.58983 9.84954L6.00541 5.79942H10.1874L13.6024 9.84954C14.4941 10.9064 15.0483 12.2339 15.0483 13.3159C15.0483 15.9066 12.941 18.0148 10.3509 18.0148H5.84157C3.2514 18.0148 1.14343 15.9068 1.14343 13.3152C1.14343 12.2346 1.69763 10.9064 2.5899 9.8495L2.58983 9.84954Z" fill="black"/>
<path d="M7.51854 12.355L8.45258 12.6938C8.98812 12.8892 9.26452 13.4826 9.06978 14.0168C8.92198 14.4244 8.53168 14.6976 8.09772 14.6976H8.09585C7.80713 14.6976 7.53592 14.5851 7.33472 14.3832C7.23441 14.2816 7.15736 14.1678 7.10527 14.0457C7.03524 13.8824 6.84625 13.8078 6.68354 13.8766C6.52024 13.9467 6.44433 14.1357 6.51449 14.2989C6.59801 14.4944 6.72027 14.6744 6.87769 14.8358C7.12523 15.0839 7.43574 15.2453 7.77254 15.3089V16.0798C7.77254 16.2571 7.91661 16.4012 8.09398 16.4012C8.27134 16.4012 8.41541 16.2571 8.41541 16.0798V15.3064C8.98497 15.1958 9.47098 14.7953 9.6742 14.2366C9.82717 13.8169 9.80794 13.3617 9.61896 12.9561C9.42997 12.5511 9.09433 12.2437 8.67257 12.0895L7.73911 11.7514C7.20358 11.5559 6.92718 10.9626 7.12191 10.4283C7.26972 10.0208 7.66002 9.74756 8.09398 9.74756H8.09585C8.38327 9.74756 8.65449 9.86007 8.85896 10.0633C8.95539 10.1603 9.03259 10.2741 9.08784 10.4008C9.15859 10.5634 9.34628 10.6361 9.51089 10.568C9.67348 10.4972 9.74881 10.3076 9.67735 10.1449C9.58996 9.94372 9.46784 9.76362 9.31343 9.60878C9.06403 9.35995 8.75277 9.19866 8.41598 9.13625V8.36538C8.41598 8.18802 8.27191 8.04395 8.09454 8.04395C7.91718 8.04395 7.7731 8.18802 7.7731 8.36538V9.13941C7.20484 9.25134 6.72139 9.65114 6.51821 10.2085C6.36524 10.6282 6.38447 11.0834 6.57346 11.4891C6.76244 11.894 7.09808 12.202 7.51856 12.3549L7.51854 12.355Z" fill="black"/>
</svg>
